<svg width="300" height="291" viewBox="0 0 300 291" fill="none" xmlns="http://www.w3.org/2000/svg">
<path d="M270.306 163.015C324.148 201.224 289.727 235.382 265.786 247.684C250.365 253.462 221.991 278.614 209.731 290.468C170.629 291.552 102.393 285.49 142.263 252.572C182.132 219.654 167.769 162.516 155.605 138.061C125.596 96.99 93.7815 19.9262 206.588 40.2434C347.596 65.6398 203.004 115.254 270.306 163.015Z" stroke="#DAE1FE" stroke-opacity="0.82" stroke-width="0.5"/>
<path d="M93.4199 202.554C52.4506 209.451 52.5099 178.852 57.6607 162.691C61.9363 153.24 63.3256 129.359 63.4858 118.6C80.378 100.702 113.404 73.0236 110.371 105.495C107.338 137.966 139.207 157.113 155.521 162.627C187.176 167.624 235.689 187.906 176.499 229.061C102.51 280.506 144.632 193.933 93.4199 202.554Z" stroke="#DAE1FE" stroke-opacity="0.82" stroke-width="0.5"/>
<path d="M251.02 163.183C299.375 206.405 262.016 235.967 237.292 245.346C221.603 249.29 191.137 270.726 177.865 280.951C139.576 277.709 73.6333 264.288 116.174 236.535C158.715 208.782 150.982 151.421 141.798 126.209C117.024 82.8124 94.4472 4.07902 202.33 36.3177C337.182 76.6159 190.578 109.154 251.02 163.183Z" stroke="#DAE1FE" stroke-opacity="0.82" stroke-width="0.5"/>
<path d="M232.975 162.635C275.407 210.132 235.698 234.877 210.539 241.313C194.795 243.438 162.706 261.01 148.63 269.53C111.622 262.159 48.7473 241.813 93.3146 219.403C137.882 196.993 136.646 140.161 130.457 114.546C111.055 69.4702 97.6844 -9.85101 199.416 33.4693C326.581 87.6196 179.935 103.263 232.975 162.635Z" stroke="#DAE1FE" stroke-opacity="0.82" stroke-width="0.5"/>
<path d="M216.224 161.531C252.395 212.532 210.935 232.311 185.684 235.826C170.091 236.169 136.854 249.788 122.185 256.554C86.8922 245.296 27.7931 218.539 73.7354 201.571C119.678 184.604 124.722 129.022 121.502 103.352C107.532 57.2443 103.212 -21.6115 197.692 31.8285C315.791 98.6285 171.011 97.7798 216.224 161.531Z" stroke="#DAE1FE" stroke-opacity="0.82" stroke-width="0.5"/>
<path d="M200.802 160.033C230.469 213.745 187.861 228.482 162.849 229.136C147.605 227.759 113.694 237.391 98.6441 242.379C65.464 227.524 10.7712 194.939 57.4408 183.436C104.11 171.934 115.142 118.281 114.824 92.8921C106.27 46.3907 110.728 -30.9887 196.99 31.5043C304.819 109.621 163.719 92.8944 200.802 160.033Z" stroke="#DAE1FE" stroke-opacity="0.82" stroke-width="0.5"/>
<path d="M186.723 158.305C209.741 213.924 166.583 223.615 142.127 221.507C127.417 218.492 93.2986 224.159 78.0785 227.37C47.3643 209.246 -2.37349 171.475 44.3887 165.384C91.1509 159.293 107.803 108.198 110.283 83.4115C107.056 37.1385 119.907 -37.8092 197.135 32.5841C293.669 120.576 157.951 88.7809 186.723 158.305Z" stroke="#DAE1FE" stroke-opacity="0.82" stroke-width="0.5"/>
<path d="M173.981 156.507C190.302 213.234 147.178 217.942 123.576 213.205C109.571 208.652 75.6989 210.431 60.5134 211.89C32.5725 190.858 -11.749 148.592 34.4922 147.788C80.7334 146.983 102.576 99.0168 107.717 75.1344C109.656 29.6864 130.416 -41.9411 197.942 35.1321C282.351 131.474 153.581 85.5973 173.981 156.507Z" stroke="#DAE1FE" stroke-opacity="0.82" stroke-width="0.5"/>
<path d="M162.553 154.795C172.222 211.845 129.694 211.701 107.221 204.497C94.0781 198.526 60.8848 196.544 45.931 196.299C21.0215 172.747 -17.5136 126.714 27.6223 131.002C72.7583 135.29 99.3051 90.9608 106.937 68.2603C113.817 24.2013 141.909 -43.2955 199.227 39.1897C270.875 142.296 150.468 83.4831 162.553 154.795Z" stroke="#DAE1FE" stroke-opacity="0.82" stroke-width="0.5"/>
<path d="M152.396 153.32C155.548 209.93 114.15 205.127 93.0568 195.649C80.9135 188.394 48.8071 182.824 34.2718 180.946C12.6003 155.282 -19.8718 106.233 23.6113 115.358C67.0944 124.482 97.8127 84.2294 107.737 62.9624C119.274 20.8161 154.04 -41.826 200.801 44.7755C259.254 153.027 148.456 82.558 152.396 153.32Z" stroke="#DAE1FE" stroke-opacity="0.82" stroke-width="0.5"/>
<path d="M143.452 152.224C140.308 207.667 100.538 198.455 81.045 186.918C70.0206 178.525 39.3788 169.585 25.4359 166.164C7.15663 138.81 -19.0704 87.5127 22.2557 101.16C63.5818 114.806 97.9005 78.9962 109.894 59.3852C125.75 19.6296 166.465 -37.5283 202.481 51.8852C247.501 163.652 147.381 82.9207 143.452 152.224Z" stroke="#DAE1FE" stroke-opacity="0.82" stroke-width="0.5"/>
<path d="M135.646 151.639C126.507 205.232 88.8197 191.911 71.1185 178.552C61.3121 169.179 32.4777 157.124 19.2863 152.269C4.50028 123.654 -15.3932 70.8757 23.3208 88.6805C62.0348 106.485 99.3543 75.4081 113.175 57.6439C132.962 20.7053 178.847 -30.4388 204.085 60.4932C235.633 174.158 147.069 84.6481 135.646 151.639Z" stroke="#DAE1FE" stroke-opacity="0.82" stroke-width="0.5"/>
<path d="M128.889 151.684C114.127 202.796 78.9336 185.715 63.182 170.785C54.6717 160.597 27.9493 145.716 15.6519 139.549C4.40745 110.105 -9.15616 56.605 26.5448 78.1592C62.2457 99.7133 101.948 73.5825 117.336 57.8228C140.629 24.0719 190.861 -20.6336 205.441 70.5524C223.666 184.535 147.341 87.7944 128.889 151.684Z" stroke="#DAE1FE" stroke-opacity="0.82" stroke-width="0.5"/>
<path d="M123.082 152.466C103.133 200.526 70.7918 180.07 57.1146 163.835C49.9574 153.001 25.6098 135.611 14.3307 128.271C6.62461 98.4221 -0.701315 44.939 31.6436 69.7977C63.9885 94.6564 105.446 73.6074 122.131 59.9756C148.471 29.7234 202.199 -8.22541 206.385 81.9966C211.619 194.774 148.017 92.3915 123.082 152.466Z" stroke="#DAE1FE" stroke-opacity="0.82" stroke-width="0.5"/>
<path d="M118.113 154.077C93.4701 198.58 64.2846 175.168 52.7722 157.899C47.0038 146.59 25.25 127.032 15.0941 118.667C10.8734 88.8267 9.60882 36.0695 38.3157 63.7593C67.0225 91.4491 109.608 75.5404 127.312 64.1249C156.216 37.6209 212.573 6.63859 206.766 94.7413C199.508 204.87 148.916 98.4488 118.113 154.077Z" stroke="#DAE1FE" stroke-opacity="0.82" stroke-width="0.5"/>
<path d="M113.863 156.593C85.0646 197.105 59.2822 171.179 49.9908 153.152C45.6257 141.541 26.6388 120.17 17.6911 110.936C16.8557 81.5022 21.3973 30.1404 46.2471 60.1672C71.0969 90.194 114.192 79.4089 132.634 70.263C163.602 47.6932 221.72 23.7801 206.446 108.686C187.353 214.818 149.86 105.954 113.863 156.593Z" stroke="#DAE1FE" stroke-opacity="0.82" stroke-width="0.5"/>
<path d="M110.206 160.076C77.8277 196.238 55.6368 168.258 48.5886 149.748C45.6206 138.003 29.5276 115.187 21.852 105.247C24.2578 76.5928 34.2787 27.248 55.1163 59.1052C75.954 90.9623 118.961 85.2118 137.859 78.3544C170.383 59.8411 229.405 42.9949 205.302 123.717C175.172 224.619 150.679 114.874 110.206 160.076Z" stroke="#DAE1FE" stroke-opacity="0.82" stroke-width="0.5"/>
<path d="M107.013 164.568C71.6565 196.099 53.186 166.535 48.3703 147.812C46.7738 136.096 33.6546 112.208 27.2945 101.728C32.757 74.2002 47.8657 27.4386 64.6 60.6149C81.3344 93.7911 123.68 92.9179 142.761 88.3343C176.331 73.9363 235.423 64.0535 203.228 139.706C162.984 234.272 151.208 125.155 107.013 164.568Z" stroke="#DAE1FE" stroke-opacity="0.82" stroke-width="0.5"/>
<path d="M104.151 170.098C66.4358 196.795 51.7558 166.119 49.1302 147.444C48.8608 135.913 38.7491 111.324 33.727 100.471C42.026 74.3852 61.7746 30.711 74.3775 64.6984C86.9803 98.6858 128.126 102.469 147.123 100.112C181.238 89.8268 239.602 86.7082 200.137 156.518C150.806 243.781 151.295 136.727 104.151 170.098Z" stroke="#DAE1FE" stroke-opacity="0.82" stroke-width="0.5"/>
<path d="M101.489 176.674C62.0403 198.415 51.163 167.094 50.6554 148.717C51.6514 137.518 44.5362 112.592 40.8541 101.53C51.7379 77.1674 75.6315 37.0178 84.1355 71.3191C92.6396 105.62 132.088 113.782 150.75 113.575C184.921 107.339 241.803 110.696 195.959 174.009C138.654 253.151 150.8 149.499 101.489 176.674Z" stroke="#DAE1FE" stroke-opacity="0.82" stroke-width="0.5"/>
<path d="M98.896 184.293C58.3372 201.031 51.2187 169.522 52.7293 151.675C54.9136 140.942 50.7406 116.035 48.381 104.923C61.5717 82.5263 89.0773 46.2672 93.5734 80.403C98.0695 114.539 135.371 126.749 153.46 128.586C187.221 126.282 241.923 135.744 190.644 192.031C126.545 262.389 149.595 163.37 98.896 184.293Z" stroke="#DAE1FE" stroke-opacity="0.82" stroke-width="0.5"/>
<path d="M96.2465 192.932C55.1878 204.698 51.7314 173.437 55.1355 156.336C58.4169 146.191 57.0913 121.639 56.0182 110.631C71.217 90.403 101.773 58.3261 102.406 91.8418C103.04 125.358 137.797 141.241 155.096 144.994C188.007 146.449 239.895 161.574 184.161 210.432C114.492 271.504 147.57 178.224 96.2465 192.932Z" stroke="#DAE1FE" stroke-opacity="0.82" stroke-width="0.5"/>
</svg>
